<svg xmlns="http://www.w3.org/2000/svg" version="1.1" xmlns:xlink="http://www.w3.org/1999/xlink" xmlns:svgjs="http://svgjs.dev/svgjs" width="1000" height="625" viewBox="0 0 1000 625"><g transform="matrix(1,0,0,1,0,0)"><svg viewBox="0 0 512 320" data-background-color="#434c5e" preserveAspectRatio="xMidYMid meet" height="625" width="1000" xmlns="http://www.w3.org/2000/svg" xmlns:xlink="http://www.w3.org/1999/xlink"><g id="tight-bounds" transform="matrix(1,0,0,1,0,0)"><svg viewBox="0 0 512 320" height="320" width="512"><g><svg></svg></g><g><svg viewBox="0 0 512 320" height="320" width="512"><g><path xmlns="http://www.w3.org/2000/svg" d="M96 160c0-88.366 71.634-160 160-160 88.366 0 160 71.634 160 160 0 88.366-71.634 160-160 160-88.366 0-160-71.634-160-160z" fill="#f2f4f8" fill-rule="nonzero" stroke="none" stroke-width="1" stroke-linecap="butt" stroke-linejoin="miter" stroke-miterlimit="10" stroke-dasharray="" stroke-dashoffset="0" font-family="none" font-weight="none" font-size="none" text-anchor="none" style="mix-blend-mode: normal" data-fill-palette-color="tertiary"></path></g><g transform="matrix(1,0,0,1,153.6,104.064)"><svg viewBox="0 0 204.8 111.872" height="111.872" width="204.8"><g><svg viewBox="0 0 204.8 111.872" height="111.872" width="204.8"><g><svg viewBox="0 0 204.8 111.872" height="111.872" width="204.8"><g id="textblocktransform"><svg viewBox="0 0 204.8 111.872" height="111.872" width="204.8" id="textblock"><g><svg viewBox="0 0 204.8 111.872" height="111.872" width="204.8"><rect width="204.8" height="111.872" x="0" y="0" opacity="1" fill="#f2f4f8" data-fill-palette-color="tertiary"></rect><g transform="matrix(1,0,0,1,15.280000000000001,15.280000000000001)"><svg width="174.24" viewBox="0 -50 93.75 43.75" height="81.312" data-palette-color="#8fbcbb"><path d="M37.5-6.25L12.5-6.25 12.5-12.5 6.25-12.5 6.25-18.75 0-18.75 0-37.5 6.25-37.5 6.25-43.75 12.5-43.75 12.5-50 37.5-50 37.5-43.75 43.75-43.75 43.75-37.5 31.25-37.5 31.25-43.75 18.75-43.75 18.75-37.5 12.5-37.5 12.5-18.75 18.75-18.75 18.75-12.5 31.25-12.5 31.25-18.75 43.75-18.75 43.75-12.5 37.5-12.5 37.5-6.25ZM93.75-6.25L56.25-6.25 56.25-50 68.75-50 68.75-12.5 93.75-12.5 93.75-6.25Z" opacity="1" transform="matrix(1,0,0,1,0,0)" fill="#8fbcbb" class="wordmark-text-0" data-fill-palette-color="quaternary" id="text-0"></path></svg></g></svg></g></svg></g></svg></g></svg></g></svg></g></svg></g><defs></defs></svg><rect width="512" height="320" fill="none" stroke="none" visibility="hidden"></rect></g></svg></g></svg>