<?xml version="1.0" standalone="no"?>
<!DOCTYPE svg PUBLIC "-//W3C//DTD SVG 20010904//EN"
 "http://www.w3.org/TR/2001/REC-SVG-20010904/DTD/svg10.dtd">
<svg version="1.0" xmlns="http://www.w3.org/2000/svg"
 width="1000.000000pt" height="1000.000000pt" viewBox="0 0 1000.000000 1000.000000"
 preserveAspectRatio="xMidYMid meet">
<metadata>
Created by potrace 1.14, written by Peter Selinger 2001-2017
</metadata>
<g transform="translate(0.000000,1000.000000) scale(0.100000,-0.100000)"
fill="#000000" stroke="none">
<path d="M4798 8115 c-1 -1 -39 -5 -83 -9 -44 -3 -91 -8 -105 -10 -14 -3 -47
-7 -75 -11 -95 -12 -295 -56 -407 -90 -194 -58 -282 -90 -445 -166 -34 -16
-66 -29 -72 -29 -5 0 -11 -3 -13 -7 -1 -5 -25 -20 -53 -34 -107 -55 -175 -95
-290 -173 -66 -44 -122 -83 -125 -86 -3 -3 -23 -19 -45 -36 -22 -16 -45 -33
-51 -39 -6 -5 -38 -32 -70 -59 -68 -58 -295 -285 -339 -340 -16 -21 -38 -47
-49 -59 -10 -12 -44 -56 -75 -97 -31 -41 -59 -77 -62 -80 -3 -3 -8 -9 -10 -15
-2 -5 -30 -49 -62 -97 -31 -48 -57 -91 -57 -94 0 -3 -9 -18 -19 -33 -22 -30
-143 -269 -139 -273 1 -2 -5 -16 -14 -33 -9 -16 -26 -55 -38 -85 -11 -30 -25
-64 -30 -75 -9 -22 -60 -171 -66 -195 -4 -17 -16 -60 -37 -140 -8 -30 -18 -72
-21 -94 -4 -21 -8 -41 -10 -45 -2 -3 -7 -26 -10 -51 -3 -25 -8 -56 -11 -70 -3
-14 -8 -43 -10 -65 -3 -22 -8 -56 -11 -77 -2 -20 -6 -70 -8 -112 -3 -41 -6
-79 -8 -83 -5 -11 -1 -303 6 -388 10 -129 22 -230 31 -275 3 -14 8 -36 10 -50
2 -14 7 -41 11 -60 3 -19 19 -87 35 -150 16 -63 32 -126 35 -139 2 -13 12 -40
20 -60 9 -20 17 -40 18 -46 4 -24 70 -200 76 -205 4 -3 12 -21 19 -40 18 -58
159 -328 187 -361 8 -8 14 -20 14 -25 0 -6 8 -19 18 -30 10 -10 21 -26 25 -34
21 -42 86 -132 100 -138 4 -2 7 -8 7 -14 0 -20 178 -227 305 -353 354 -354
786 -619 1245 -763 141 -44 218 -66 271 -76 48 -9 87 -17 111 -20 15 -3 31 -7
35 -9 7 -5 62 -13 158 -23 22 -3 67 -7 100 -11 74 -8 500 -8 575 0 71 7 137
16 175 23 17 3 49 7 72 9 24 2 47 6 52 9 5 3 26 8 47 11 22 4 47 8 56 11 9 3
26 7 38 9 12 2 30 7 40 10 10 3 27 7 37 9 10 2 70 21 133 41 63 21 119 38 125
40 5 1 27 9 47 19 21 9 40 16 42 16 3 0 29 11 58 23 29 13 56 24 61 25 20 4
318 162 327 173 3 3 16 12 30 19 72 37 278 185 395 284 71 61 281 270 347 347
194 226 377 516 488 774 11 28 25 59 30 70 23 49 104 279 115 325 1 8 8 35 15
60 7 25 14 52 15 60 2 8 9 38 15 65 17 71 20 86 25 120 2 17 7 41 9 55 7 34
16 96 20 145 3 22 8 76 12 120 8 92 9 339 0 470 -5 89 -16 174 -42 340 -11 68
-78 326 -106 410 -56 165 -117 311 -182 435 -22 41 -47 90 -55 108 -8 17 -19
32 -23 32 -4 0 -8 6 -8 13 0 13 -165 267 -203 312 -9 11 -30 38 -47 60 -87
112 -307 341 -410 428 -25 20 -61 51 -80 67 -19 17 -47 38 -62 47 -16 10 -28
21 -28 25 0 4 -6 8 -14 8 -8 0 -16 4 -18 8 -4 12 -207 147 -282 188 -224 124
-437 216 -646 279 -72 22 -227 62 -265 68 -45 9 -137 26 -165 31 -25 5 -86 13
-165 22 -48 5 -512 14 -517 9z"/>
</g>
</svg>
